<?xml version="1.0" encoding="utf-8"?>
<!-- Generator: Adobe Illustrator 26.0.1, SVG Export Plug-In . SVG Version: 6.00 Build 0)  -->
<svg version="1.1" id="Capa_1" xmlns="http://www.w3.org/2000/svg" xmlns:xlink="http://www.w3.org/1999/xlink" x="0px" y="0px"
	 viewBox="0 0 349.2 108.9" style="enable-background:new 0 0 349.2 108.9;" xml:space="preserve">
<style type="text/css">
	.st0{fill:#F9EBCF;}
	.st1{fill:none;stroke:#F3A069;stroke-width:2;stroke-miterlimit:10;}
	.st2{fill:#7F9758;}
	.st3{fill:#D7AF2F;}
	.st4{fill:#F9D77D;}
	.st5{fill:#BE7C44;}
</style>
<path class="st0" d="M305.3,79.9V35c-5.8,0-10.4-4.7-10.4-10.4h-242c0,5.8-4.7,10.4-10.4,10.4v44.9c5.8,0,10.4,4.7,10.4,10.4h242
	C294.9,84.6,299.5,79.9,305.3,79.9z"/>
<path class="st1" d="M294.8,74.8V40.6c-5.3,0-9.6-3.5-9.6-7.9H62.5c0,4.4-4.3,7.9-9.6,7.9v34.2c5.3,0,9.6,3.6,9.6,7.9h222.7
	C285.3,78.4,289.5,74.8,294.8,74.8z"/>
<g>
	<g>
		<g>
			<path class="st2" d="M77.9,101.8c-0.1,0.4-0.5,1.9-0.6,2.3h-6.5v-0.4c1.3-0.1,1.4-0.2,1.4-1.4v-5.6c0-1.2-0.1-1.3-1.3-1.4v-0.4
				h3.8v0.4c-1.1,0.1-1.3,0.2-1.3,1.4v5.7c0,0.8,0.1,1.1,0.9,1.1c0,0,1,0,1.1,0c0.7,0,0.9-0.1,1.2-0.4c0.3-0.4,0.6-0.9,0.8-1.4
				L77.9,101.8z"/>
			<path class="st2" d="M83.5,94.9c2.4,0,4.5,1.8,4.5,4.6c0,3-2.1,4.9-4.6,4.9c-2.7,0-4.7-2-4.7-4.7C78.8,97.2,80.6,94.9,83.5,94.9z
				 M83.3,95.4c-1.6,0-3,1.3-3,3.9c0,2.6,1.4,4.5,3.4,4.5c1.7,0,3-1.3,3-4C86.7,96.9,85.1,95.4,83.3,95.4z"/>
			<path class="st2" d="M100.4,104.2v-0.4c1.2-0.1,1.2-0.2,1.2-1.7l0-5.7c-1.2,2.6-3,6.6-3.5,7.8h-0.4c-0.5-1.3-2.1-5.1-3.1-7.7
				c-0.2,4.9-0.2,6-0.2,6.3c0,0.8,0.4,0.9,1.3,1v0.4h-3.3v-0.4c0.8-0.1,1.2-0.2,1.3-1c0.1-0.6,0.1-1.1,0.5-6.2
				c0.1-0.7-0.1-1-1.3-1.1v-0.4h2.4l3.1,7.1l3.3-7.1h2.4v0.4c-1.2,0.1-1.4,0.3-1.3,1.2l0.1,5.4c0.1,1.5,0.1,1.6,1.3,1.7v0.4
				L100.4,104.2L100.4,104.2z"/>
			<path class="st2" d="M112.6,101.9c-0.1,0.4-0.5,1.8-0.6,2.2h-6.8v-0.4c1.3-0.1,1.4-0.2,1.4-1.4v-5.5c0-1.2-0.2-1.3-1.2-1.4v-0.4
				h4.3c1.3,0,1.9,0,2,0c0,0.3,0.1,1.4,0.1,2.1l-0.4,0.1c-0.1-0.5-0.3-0.8-0.4-1.1c-0.2-0.5-0.6-0.6-1.4-0.6h-1.3
				c-0.4,0-0.5,0-0.5,0.4v3.1h1.6c1.1,0,1.1-0.2,1.3-1.2h0.4v2.9h-0.4c-0.2-1-0.3-1.2-1.3-1.2h-1.5v2.8c0,1,0.3,1.1,1,1.1h1.3
				c0.8,0,1-0.1,1.3-0.5c0.3-0.3,0.6-0.9,0.8-1.3L112.6,101.9z"/>
			<path class="st2" d="M117.2,95.4c-1.1,0.1-1.2,0.2-1.2,1.4v5.2c0,1.8-0.3,2.8-1.2,3.7c-0.5,0.4-0.9,0.6-1.3,0.8l-0.2-0.4
				c0.8-0.4,1.2-1,1.4-1.8c0.1-0.7,0.1-1.5,0.1-2.7v-4.7c0-1.2-0.1-1.3-1.3-1.4v-0.4h3.7L117.2,95.4L117.2,95.4z"/>
			<path class="st2" d="M123,94.9c2.4,0,4.5,1.8,4.5,4.6c0,3-2.1,4.9-4.6,4.9c-2.7,0-4.7-2-4.7-4.7C118.3,97.2,120,94.9,123,94.9z
				 M122.7,95.4c-1.6,0-3,1.3-3,3.9c0,2.6,1.4,4.5,3.4,4.5c1.7,0,3-1.3,3-4C126.1,96.9,124.6,95.4,122.7,95.4z"/>
			<path class="st2" d="M137.1,104.3c-0.2,0-0.3,0-0.5,0c-1-0.1-1.6-0.3-2.2-1.2c-0.5-0.7-1-1.6-1.5-2.3c-0.3-0.4-0.5-0.5-1.2-0.5
				h-0.5v2.2c0,1.2,0.1,1.3,1.3,1.4v0.4h-3.7v-0.4c1.2-0.1,1.3-0.2,1.3-1.4v-5.6c0-1.2-0.1-1.2-1.3-1.4v-0.4h3.6
				c1,0,1.7,0.1,2.2,0.5c0.6,0.4,0.9,1,0.9,1.8c0,1.2-0.8,2-1.8,2.4c0.2,0.4,0.9,1.4,1.3,2c0.5,0.7,0.8,1.1,1.1,1.4
				c0.4,0.4,0.7,0.6,1,0.6L137.1,104.3z M131.9,99.7c0.7,0,1.2-0.1,1.5-0.4c0.6-0.4,0.8-1,0.8-1.7c0-1.5-1-2.1-2.1-2.1
				c-0.4,0-0.6,0.1-0.7,0.1c-0.1,0.1-0.2,0.2-0.2,0.6v3.4L131.9,99.7L131.9,99.7z"/>
			<path class="st2" d="M144.3,95.1c1,0,1.8,0.2,2.4,0.6c0.6,0.4,0.9,1.1,0.9,2c0,2-1.8,2.9-3.1,2.9c-0.1,0-0.3,0-0.4,0l-1-0.2v2.2
				c0,1.2,0.1,1.2,1.4,1.3v0.4h-3.9v-0.4c1.2-0.1,1.3-0.2,1.3-1.4v-5.6c0-1.2-0.1-1.3-1.3-1.4V95L144.3,95.1L144.3,95.1z
				 M143.1,99.7c0.2,0.1,0.6,0.2,1,0.2c0.9,0,2.1-0.5,2.1-2.2c0-1.5-1-2.2-2.2-2.2c-0.4,0-0.7,0.1-0.8,0.2c-0.1,0.1-0.1,0.3-0.1,0.6
				L143.1,99.7L143.1,99.7z"/>
			<path class="st2" d="M153.4,104.2v-0.4c0.9-0.1,1-0.2,0.8-0.8c-0.2-0.6-0.5-1.2-0.8-2.1h-3c-0.2,0.6-0.4,1.2-0.6,1.8
				c-0.3,0.9-0.1,1,1,1.2v0.4h-3.2v-0.4c0.9-0.1,1.1-0.2,1.6-1.5l2.9-7.3l0.4-0.1c0.9,2.4,1.9,5,2.7,7.5c0.4,1.2,0.6,1.3,1.6,1.4
				v0.4L153.4,104.2L153.4,104.2z M152,96.7c-0.4,1.2-0.9,2.5-1.3,3.6h2.6L152,96.7z"/>
			<path class="st2" d="M165.6,104.3c-0.2,0-0.3,0-0.5,0c-1-0.1-1.6-0.3-2.2-1.2c-0.5-0.7-1-1.6-1.5-2.3c-0.3-0.4-0.5-0.5-1.2-0.5
				h-0.5v2.2c0,1.2,0.1,1.3,1.3,1.4v0.4h-3.7v-0.4c1.2-0.1,1.3-0.2,1.3-1.4v-5.6c0-1.2-0.1-1.2-1.3-1.4v-0.4h3.6
				c1,0,1.7,0.1,2.2,0.5c0.6,0.4,0.9,1,0.9,1.8c0,1.2-0.8,2-1.8,2.4c0.2,0.4,0.9,1.4,1.3,2c0.5,0.7,0.8,1.1,1.1,1.4
				c0.4,0.4,0.7,0.6,1,0.6L165.6,104.3z M160.4,99.7c0.7,0,1.2-0.1,1.5-0.4c0.6-0.4,0.8-1,0.8-1.7c0-1.5-1-2.1-2.1-2.1
				c-0.4,0-0.6,0.1-0.7,0.1c-0.1,0.1-0.2,0.2-0.2,0.6v3.4L160.4,99.7L160.4,99.7z"/>
			<path class="st2" d="M170.6,104.2v-0.4c0.9-0.1,1-0.2,0.8-0.8c-0.2-0.6-0.5-1.2-0.8-2.1h-3c-0.2,0.6-0.4,1.2-0.6,1.8
				c-0.3,0.9-0.1,1,1,1.2v0.4h-3.2v-0.4c0.9-0.1,1.1-0.2,1.6-1.5l2.9-7.3l0.4-0.1c0.9,2.4,1.9,5,2.7,7.5c0.4,1.2,0.6,1.3,1.6,1.4
				v0.4L170.6,104.2L170.6,104.2z M169.1,96.7c-0.4,1.2-0.9,2.5-1.3,3.6h2.6L169.1,96.7z"/>
			<path class="st2" d="M185,97.2c-0.1-0.4-0.3-0.9-0.4-1.2c-0.2-0.4-0.4-0.5-1.1-0.5H182v6.8c0,1.1,0.1,1.2,1.4,1.3v0.4h-4.1v-0.4
				c1.3-0.1,1.4-0.2,1.4-1.3v-6.8h-1.3c-0.8,0-1,0.1-1.2,0.5c-0.2,0.3-0.3,0.6-0.5,1.1h-0.4c0.1-0.8,0.2-1.7,0.2-2.5h0.3
				c0.2,0.3,0.4,0.3,0.8,0.3h5.6c0.4,0,0.5-0.1,0.7-0.3h0.3c0,0.7,0.1,1.7,0.1,2.5L185,97.2z"/>
			<path class="st2" d="M196.1,95.4c-0.9,0.1-1.2,0.3-1.2,0.9c0,0.3,0,0.9,0,2.2v1.5c0,1.4-0.2,2.5-1,3.4c-0.7,0.7-1.6,0.9-2.6,0.9
				c-0.8,0-1.7-0.2-2.3-0.6c-0.8-0.6-1.2-1.6-1.2-3.2v-3.6c0-1.3-0.1-1.3-1.2-1.4v-0.4h3.7v0.4c-1.1,0.1-1.2,0.2-1.2,1.4v3.5
				c0,2.1,1,3.2,2.6,3.2c2,0,2.6-1.2,2.6-3.6v-1.4c0-1.3,0-1.8-0.1-2.2c0-0.6-0.4-0.9-1.4-0.9v-0.4h3.4V95.4z"/>
			<path class="st2" d="M207.4,101.9c-0.1,0.4-0.5,1.8-0.6,2.2h-6.8v-0.4c1.3-0.1,1.4-0.2,1.4-1.4v-5.5c0-1.2-0.1-1.3-1.2-1.4v-0.4
				h4.3c1.3,0,1.9,0,2,0c0,0.3,0.1,1.4,0.1,2.1l-0.4,0.1c-0.1-0.5-0.3-0.8-0.4-1.1c-0.2-0.5-0.6-0.6-1.4-0.6H203
				c-0.4,0-0.5,0-0.5,0.4v3.1h1.6c1.1,0,1.1-0.2,1.3-1.2h0.4v2.9h-0.4c-0.2-1-0.3-1.2-1.3-1.2h-1.5v2.8c0,1,0.3,1.1,1,1.1h1.3
				c0.9,0,1-0.1,1.3-0.5c0.3-0.3,0.6-0.9,0.8-1.3L207.4,101.9z"/>
			<path class="st2" d="M216.7,101.9c-0.2,0.7-0.6,1.7-0.8,2.1c-0.4,0.1-1.5,0.3-2.6,0.3c-3.4,0-5.1-2.2-5.1-4.7
				c0-2.9,2.2-4.8,5.3-4.8c1.2,0,2.2,0.2,2.6,0.3c0.1,0.6,0.1,1.5,0.3,2.2l-0.4,0.1c-0.3-0.9-0.6-1.5-1.3-1.8
				c-0.4-0.2-0.9-0.3-1.5-0.3c-2.3,0-3.5,1.7-3.5,4c0,2.7,1.4,4.4,3.7,4.4c1.4,0,2.1-0.7,2.8-2.1L216.7,101.9z"/>
			<path class="st2" d="M222.7,94.9c2.4,0,4.5,1.8,4.5,4.6c0,3-2,4.9-4.6,4.9c-2.7,0-4.6-2-4.6-4.7C218,97.2,219.8,94.9,222.7,94.9z
				 M222.4,95.4c-1.6,0-3,1.3-3,3.9c0,2.6,1.4,4.5,3.4,4.5c1.7,0,3-1.3,3-4C225.8,96.9,224.3,95.4,222.4,95.4z"/>
			<path class="st2" d="M238.2,95.4c-0.9,0.1-1.2,0.2-1.2,0.9c0,0.4,0,1,0,2.3v5.6h-0.5l-6-7.3v3.5c0,1.3,0,1.9,0.1,2.3
				c0,0.7,0.4,0.9,1.4,1v0.4h-3.4v-0.4c0.9-0.1,1.2-0.3,1.3-1c0-0.4,0.1-1.1,0.1-2.3v-3.6c0-0.4,0-0.6-0.3-0.9
				c-0.3-0.3-0.6-0.4-1.2-0.5v-0.4h2.1l5.9,7.1v-3.4c0-1.3,0-1.9-0.1-2.3c0-0.6-0.4-0.8-1.5-0.9v-0.4h3.5L238.2,95.4L238.2,95.4z"/>
			<path class="st2" d="M243.9,94.9c2.4,0,4.5,1.8,4.5,4.6c0,3-2,4.9-4.6,4.9c-2.7,0-4.6-2-4.6-4.7C239.2,97.2,241,94.9,243.9,94.9z
				 M243.7,95.4c-1.6,0-3,1.3-3,3.9c0,2.6,1.4,4.5,3.4,4.5c1.7,0,3-1.3,3-4C247.1,96.9,245.5,95.4,243.7,95.4z"/>
			<path class="st2" d="M257.6,104.2v-0.4c1.1-0.1,1.2-0.2,1.2-1.7l0-5.7c-1.1,2.6-3,6.6-3.5,7.8h-0.4c-0.5-1.3-2.1-5.1-3.1-7.7
				c-0.2,4.9-0.2,6-0.2,6.3c0,0.8,0.4,0.9,1.3,1v0.4h-3.3v-0.4c0.8-0.1,1.1-0.2,1.3-1c0.1-0.6,0.1-1.1,0.5-6.2
				c0.1-0.7-0.1-1-1.3-1.1v-0.4h2.4l3.1,7.1l3.3-7.1h2.5v0.4c-1.2,0.1-1.4,0.3-1.3,1.2l0.1,5.4c0.1,1.5,0.1,1.6,1.3,1.7v0.4
				L257.6,104.2L257.6,104.2z"/>
			<path class="st2" d="M262.4,104.2v-0.4c1.1-0.1,1.3-0.2,1.3-1.4v-5.6c0-1.2-0.1-1.3-1.3-1.4v-0.4h3.8v0.4
				c-1.2,0.1-1.3,0.2-1.3,1.4v5.6c0,1.2,0.1,1.2,1.3,1.4v0.4H262.4z M263.7,93.9l2.3-2.1c0.3,0.1,0.9,0.6,1,0.8l0,0.1l-3,1.6
				L263.7,93.9z"/>
			<path class="st2" d="M272.1,104.2v-0.4c0.9-0.1,1-0.2,0.8-0.8c-0.2-0.6-0.5-1.2-0.8-2.1h-3c-0.2,0.6-0.4,1.2-0.6,1.8
				c-0.3,0.9-0.1,1,1,1.2v0.4h-3.2v-0.4c0.9-0.1,1.1-0.2,1.6-1.5l2.9-7.3l0.5-0.1c0.9,2.4,1.9,5,2.7,7.5c0.5,1.2,0.6,1.3,1.6,1.4
				v0.4L272.1,104.2L272.1,104.2z M270.8,96.7c-0.5,1.2-0.9,2.5-1.3,3.6h2.6L270.8,96.7z"/>
		</g>
	</g>
</g>
<g>
	<g>
		<g>
			<path class="st3" d="M320.6,67.8c-1.6,14.9-11.6,27.2-23.6,35.5l-2.8-4.5C306.7,92.3,317.3,81.9,320.6,67.8L320.6,67.8z"/>
		</g>
		<g>
			<g>
				<path class="st3" d="M342.2,39.7c1.2,22-8.8,37.7-26.8,49.4c-5.4,3.6-10.9,6.9-16.6,10c4.7-4.5,9.7-8.5,14.6-12.6
					C330.8,72.4,337.7,61.8,342.2,39.7L342.2,39.7z"/>
			</g>
			<g>
				<path class="st3" d="M308.8,43c5.1,10.9,6.2,23.3,3.7,35.1c-1.5,7.9-4.1,16.2-11.2,20.8c-1.1,0.7-2.4,1.5-3.8,1.4
					c2.4-1,3.8-3.3,5.3-5.3c3.6-5.1,4.5-11.7,5.6-17.7c1.1-6.2,1.7-12.5,1.6-18.9C310.1,53.4,309.1,48.3,308.8,43L308.8,43z"/>
			</g>
		</g>
	</g>
	<g>
		<g>
			<path class="st4" d="M320,23.6c0.6-3,0.9-4.6-0.5-7.5c-1.2-2.8-3.2-6-5.9-7.5c1,3.1,1.7,5.7,2.2,9c0.3,2.4,1.8,4.9,4,6.1"/>
		</g>
		<g>
			<path class="st4" d="M321.6,29.1c0.1-4.1-1.4-12,2.8-14.5c0.2,2.9,1.1,5.8,1.2,8.6C325.7,26.6,324.2,27.6,321.6,29.1"/>
		</g>
		<g>
			<path class="st4" d="M323.6,37.6c0.6-4.6,0.5-10,4.2-13.1c-0.2,4.5,1.9,11.4-4.1,13.1"/>
		</g>
		<g>
			<path class="st4" d="M324.6,46.2c0.4-2.1,0.6-4.3,1.3-6.2c1.1-2.6,2.9-4.2,4.5-6.4C330.3,37,329.6,46,324.6,46.2"/>
		</g>
		<g>
			<path class="st4" d="M324.1,54.1c-0.1-4.7,3.3-9.9,7.4-12.1C331.7,44.8,329.2,55.6,324.1,54.1"/>
		</g>
		<g>
			<path class="st4" d="M322.7,62.4c2-4.1,5-8.9,9.2-11.1c0,5-3,12.3-9.2,11.2"/>
		</g>
		<g>
			<path class="st4" d="M321.1,69.6c0.8-4.3,5.5-7.1,9.3-8.5c0.6,3.8-5.2,9.7-9.3,8.9"/>
		</g>
		<g>
			<path class="st4" d="M320.6,27c-3.1-4.3-5-7.2-10.6-8.3C313.6,22.6,314.9,26,320.6,27"/>
		</g>
		<g>
			<path class="st4" d="M322.7,34.8c-0.3-4.8-4.9-8.1-9.4-8.9C316.5,29.7,317.4,33.8,322.7,34.8"/>
		</g>
		<g>
			<path class="st4" d="M323.9,42.6c-1-4.5-4-8.3-8.8-9.4c1.6,1.6,2.9,3.8,3.7,5.8c1.3,2.7,1.8,3,4.7,3.6"/>
		</g>
		<g>
			<path class="st4" d="M323.8,50.3c-1-4.4-2-8.9-7.3-9.8C318.1,43.5,319.7,49.9,323.8,50.3"/>
		</g>
		<g>
			<path class="st4" d="M322.7,58.9c0.3-4.5-0.8-9.5-5.5-11.4C318.7,51.3,317.8,57.2,322.7,58.9"/>
		</g>
		<g>
			<path class="st4" d="M321.1,66.8c0.3-3.8,0.1-9.5-4.1-11.5c0.3,4-0.9,9.4,3.9,11.3"/>
		</g>
	</g>
	<g>
		<g>
			<path class="st3" d="M323.6,19.7c-0.6-3.5,0.2-7.1,2.5-9.8c0.1,1.7-0.5,3.4-0.9,5C324.9,16.5,324.5,18.2,323.6,19.7L323.6,19.7z"
				/>
		</g>
		<g>
			<path class="st3" d="M326.5,30.8c-0.4-4,0.8-8.3,3.5-11.4C329.3,23.4,328.3,27.2,326.5,30.8L326.5,30.8z"/>
		</g>
		<g>
			<path class="st3" d="M328.1,39.6c0.5-3,1.3-5.8,2.7-8.5c1.7-3.2,2-3.1,1.2,0.4C331.2,34.4,330.2,37.4,328.1,39.6L328.1,39.6z"/>
		</g>
		<g>
			<path class="st3" d="M328.6,48.8c0.6-4,2.9-7.4,5.3-10.6C333.5,42.2,331.1,45.7,328.6,48.8L328.6,48.8z"/>
		</g>
		<g>
			<path class="st3" d="M328.1,57.5c1.1-3.7,3-7.3,6-9.7C332.9,51.5,331.1,55,328.1,57.5L328.1,57.5z"/>
		</g>
		<g>
			<path class="st3" d="M326.4,65.6c0.8-3,3.4-5.2,5.7-7.1l2.3-2c-0.2,1-0.8,2-1.4,2.8C331.2,61.7,328.6,63.7,326.4,65.6L326.4,65.6
				z"/>
		</g>
		<g>
			<path class="st3" d="M307.4,17.9c4-0.3,7.1,3,9.1,6.1C313,22.6,310.6,19.7,307.4,17.9L307.4,17.9z"/>
		</g>
		<g>
			<path class="st3" d="M308.4,24.7c4.7-0.1,9.7,2,11.5,6.6c-1.9-1.3-3.4-2.7-5.4-3.7C312.5,26.5,310.3,25.9,308.4,24.7L308.4,24.7z
				"/>
		</g>
		<g>
			<path class="st3" d="M310.7,31.6c4.5,0.1,8.9,3.1,10.7,7.3C317.9,36.2,314.5,33.8,310.7,31.6L310.7,31.6z"/>
		</g>
		<g>
			<path class="st3" d="M313.7,38.9c3.3,1.9,7.8,3.9,8.1,8.3C319.5,44,315.5,42.5,313.7,38.9L313.7,38.9z"/>
		</g>
		<g>
			<path class="st3" d="M314.1,45.9c4,1.8,6.4,4.2,6.8,8.7c-1.4-1.3-2-3.1-3.3-4.4C316.5,48.8,315,47.6,314.1,45.9L314.1,45.9z"/>
		</g>
		<g>
			<path class="st3" d="M314,53c3.5,0.8,5.5,4.6,5.5,8c-1-1.1-1.9-2.8-2.7-4.1C316,55.7,314.8,54.1,314,53L314,53z"/>
		</g>
		<g>
			<path class="st3" d="M308.6,1.7c2.2,2.2,4.5,4.1,6.2,6.7c1.6,2.6,2.6,5.6,3,8.7c-1.6-2.6-2.7-5.3-4.3-7.8
				C311.9,6.8,309.8,4.5,308.6,1.7L308.6,1.7z"/>
		</g>
	</g>
</g>
<g>
	<g>
		<g>
			<path class="st3" d="M26.2,67.8c3.3,14,13.9,24.5,26.4,31l-2.8,4.5C37.7,95,27.8,82.6,26.2,67.8L26.2,67.8z"/>
		</g>
		<g>
			<g>
				<path class="st3" d="M4.6,39.6C9.1,61.8,16,72.3,33.5,86.4c4.9,4.1,9.9,8.1,14.6,12.6c-5.7-3.1-11.2-6.3-16.6-10
					C13.4,77.3,3.4,61.6,4.6,39.6L4.6,39.6z"/>
			</g>
			<g>
				<path class="st3" d="M38,42.9c-0.3,5.3-1.3,10.4-1.2,15.4c0,6.4,0.5,12.6,1.7,18.9c1.1,6.1,2,12.6,5.6,17.7
					c1.4,2,2.9,4.4,5.3,5.3c-1.4,0.1-2.6-0.7-3.8-1.4c-7.1-4.7-9.7-13-11.2-20.8C31.8,66.3,32.9,53.8,38,42.9L38,42.9z"/>
			</g>
		</g>
	</g>
	<g>
		<g>
			<path class="st4" d="M26.8,23.5c-0.6-3-0.9-4.5,0.5-7.5c1.2-2.8,3.2-6,5.9-7.5c-1,3.1-1.7,5.7-2.2,9c-0.3,2.4-1.8,4.9-4,6.1"/>
		</g>
		<g>
			<path class="st4" d="M25.2,29.1c-0.1-4.1,1.4-12-2.8-14.5c-0.2,2.9-1.1,5.8-1.2,8.6C21.1,26.5,22.6,27.5,25.2,29.1"/>
		</g>
		<g>
			<path class="st4" d="M23.1,37.5c-0.6-4.6-0.5-10-4.2-13.1c0.2,4.5-1.9,11.4,4.1,13.1"/>
		</g>
		<g>
			<path class="st4" d="M22.2,46.1c-0.4-2.1-0.6-4.3-1.3-6.2c-1.1-2.6-2.9-4.2-4.5-6.4C16.5,37,17.2,45.9,22.2,46.1"/>
		</g>
		<g>
			<path class="st4" d="M22.6,54c0.1-4.7-3.3-9.9-7.4-12.1C15.1,44.7,17.6,55.5,22.6,54"/>
		</g>
		<g>
			<path class="st4" d="M24.1,62.3c-2-4.1-5-8.9-9.2-11.1c0,5,3,12.3,9.2,11.2"/>
		</g>
		<g>
			<path class="st4" d="M25.7,69.5c-0.8-4.3-5.5-7.1-9.3-8.5c-0.6,3.8,5.2,9.7,9.3,8.9"/>
		</g>
		<g>
			<path class="st4" d="M26.2,27c3.1-4.3,5-7.2,10.6-8.3C33.2,22.6,31.9,25.9,26.2,27"/>
		</g>
		<g>
			<path class="st4" d="M24.1,34.8c0.3-4.8,4.9-8.1,9.4-8.9C30.3,29.6,29.4,33.8,24.1,34.8"/>
		</g>
		<g>
			<path class="st4" d="M22.9,42.5c1-4.5,4-8.3,8.8-9.4c-1.6,1.6-2.9,3.8-3.7,5.8c-1.3,2.7-1.8,3-4.7,3.6"/>
		</g>
		<g>
			<path class="st4" d="M23,50.3c1-4.4,2-8.9,7.3-9.8C28.7,43.4,27.1,49.9,23,50.3"/>
		</g>
		<g>
			<path class="st4" d="M24.1,58.8c-0.3-4.5,0.8-9.5,5.5-11.4C28.1,51.2,29,57.1,24.1,58.8"/>
		</g>
		<g>
			<path class="st4" d="M25.7,66.7c-0.3-3.8-0.1-9.5,4.1-11.5c-0.3,4,0.9,9.4-3.9,11.3"/>
		</g>
	</g>
	<g>
		<g>
			<path class="st3" d="M23.2,19.6c-0.9-1.5-1.3-3.2-1.7-4.8c-0.4-1.6-1-3.3-0.9-5C23,12.5,23.9,16.2,23.2,19.6L23.2,19.6z"/>
		</g>
		<g>
			<path class="st3" d="M20.3,30.7c-1.8-3.6-2.8-7.4-3.5-11.4C19.5,22.4,20.6,26.6,20.3,30.7L20.3,30.7z"/>
		</g>
		<g>
			<path class="st3" d="M18.7,39.5c-2.1-2.2-3.1-5.2-3.8-8.1C14,27.8,14.3,27.8,16,31C17.4,33.7,18.1,36.5,18.7,39.5L18.7,39.5z"/>
		</g>
		<g>
			<path class="st3" d="M18.2,48.7c-2.6-3-4.9-6.5-5.3-10.6C15.3,41.2,17.6,44.7,18.2,48.7L18.2,48.7z"/>
		</g>
		<g>
			<path class="st3" d="M18.7,57.4c-3-2.5-4.8-6.1-6-9.7C15.7,50.2,17.6,53.8,18.7,57.4L18.7,57.4z"/>
		</g>
		<g>
			<path class="st3" d="M20.4,65.6c-2.2-2-4.8-3.9-6.6-6.3c-0.6-0.8-1.1-1.8-1.4-2.8l2.3,2C17,60.4,19.6,62.5,20.4,65.6L20.4,65.6z"
				/>
		</g>
		<g>
			<path class="st3" d="M39.4,17.9c-3.3,1.8-5.7,4.7-9.1,6.1C32.3,20.8,35.4,17.6,39.4,17.9L39.4,17.9z"/>
		</g>
		<g>
			<path class="st3" d="M38.4,24.6c-1.9,1.2-4.1,1.8-6,2.9c-2,1-3.6,2.4-5.4,3.7C28.7,26.6,33.7,24.5,38.4,24.6L38.4,24.6z"/>
		</g>
		<g>
			<path class="st3" d="M36.1,31.5c-3.8,2.2-7.2,4.6-10.7,7.3C27.2,34.7,31.6,31.6,36.1,31.5L36.1,31.5z"/>
		</g>
		<g>
			<path class="st3" d="M33.1,38.9c-1.9,3.6-5.8,5-8.1,8.3C25.3,42.8,29.8,40.8,33.1,38.9L33.1,38.9z"/>
		</g>
		<g>
			<path class="st3" d="M32.7,45.8c-0.9,1.7-2.4,2.9-3.6,4.3c-1.3,1.3-1.9,3.1-3.3,4.4C26.3,50,28.7,47.6,32.7,45.8L32.7,45.8z"/>
		</g>
		<g>
			<path class="st3" d="M32.8,52.9c-0.8,1.1-2,2.8-2.8,3.9c-0.8,1.3-1.7,2.9-2.7,4.1C27.3,57.5,29.3,53.7,32.8,52.9L32.8,52.9z"/>
		</g>
		<g>
			<path class="st3" d="M38.2,1.6c-1.1,2.8-3.3,5.1-4.9,7.6c-1.6,2.5-2.8,5.2-4.3,7.8c0.4-3.1,1.4-6,3-8.7C33.7,5.7,36,3.8,38.2,1.6
				L38.2,1.6z"/>
		</g>
	</g>
</g>
<g>
	<g>
		<path class="st5" d="M102.2,57.1c2,0.3,3.5,1.3,3.5,3.2c0,1.3-0.8,2.4-1.9,3.1c-1,0.6-2.1,0.8-3.5,0.8h-5v-0.6
			c1.7-0.2,1.8-0.3,1.8-1.9v-7.9c0-1.7-0.2-1.8-1.8-1.9v-0.6h5.4c1.5,0,2.4,0.2,3.1,0.7c0.7,0.5,1.2,1.2,1.2,2.2
			C104.9,56,103.3,56.9,102.2,57.1z M99.8,56.9c2.1,0,3-0.9,3-2.5c0-1.5-0.9-2.5-2.7-2.5c-0.5,0-0.9,0.1-1.1,0.2
			c-0.2,0.1-0.2,0.3-0.2,0.9v3.8H99.8z M98.8,61.6c0,1.4,0.4,1.8,1.8,1.8c1.5,0,2.9-0.9,2.9-2.9c0-2-1.4-2.9-3.8-2.9h-0.9V61.6z"/>
		<path class="st5" d="M120.9,51.8c-1.3,0.1-1.7,0.4-1.7,1.3c0,0.5-0.1,1.3-0.1,3.1v2.2c0,2-0.2,3.6-1.4,4.8c-0.9,1-2.3,1.3-3.7,1.3
			c-1.2,0-2.4-0.2-3.3-0.9c-1.2-0.9-1.8-2.3-1.8-4.6v-5.1c0-1.8-0.2-1.9-1.8-2.1v-0.6h5.4v0.6c-1.6,0.1-1.7,0.3-1.7,2.1v5.1
			c0,2.8,1.3,4.4,3.7,4.4c2.8,0,3.7-1.8,3.7-5v-2.1c0-1.8-0.1-2.5-0.1-3.1c-0.1-0.9-0.5-1.2-2-1.3v-0.6h4.8V51.8z"/>
		<path class="st5" d="M135.9,51.8c-1.3,0.1-1.7,0.4-1.7,1.3c0,0.7-0.1,1.5-0.1,3.3v8h-0.8L124.7,54v4.9c0,1.8,0.1,2.7,0.1,3.2
			c0,1,0.5,1.3,2,1.4v0.6h-4.9v-0.6c1.2-0.1,1.7-0.4,1.8-1.4c0.1-0.7,0.1-1.5,0.1-3.3v-5c0-0.6,0-0.9-0.4-1.4
			c-0.4-0.5-0.8-0.6-1.8-0.7v-0.6h3.2l8.3,9.8v-4.7c0-1.8,0-2.7-0.1-3.3c-0.1-0.9-0.5-1.2-2.1-1.3v-0.6h4.9V51.8z M125.4,49.5
			c0.7-1.4,1.6-1.9,2.2-1.9c1,0,2.1,0.8,3,0.8c0.4,0,0.8-0.2,1.4-0.9l0.5,0.3c-0.9,1.5-1.7,1.9-2.2,1.9c-0.9,0-2.1-0.8-3-0.8
			c-0.4,0-0.8,0.2-1.4,0.9L125.4,49.5z"/>
		<path class="st5" d="M150.9,51.8c-1.3,0.1-1.7,0.4-1.7,1.3c0,0.5-0.1,1.3-0.1,3.1v2.2c0,2-0.2,3.6-1.4,4.8c-0.9,1-2.3,1.3-3.7,1.3
			c-1.2,0-2.4-0.2-3.3-0.9c-1.2-0.9-1.8-2.3-1.8-4.6v-5.1c0-1.8-0.2-1.9-1.8-2.1v-0.6h5.4v0.6c-1.6,0.1-1.7,0.3-1.7,2.1v5.1
			c0,2.8,1.3,4.4,3.7,4.4c2.8,0,3.7-1.8,3.7-5v-2.1c0-1.8-0.1-2.5-0.1-3.1c-0.1-0.9-0.5-1.2-2-1.3v-0.6h4.8V51.8z"/>
		<path class="st5" d="M162.4,61c-0.1,0.5-0.7,2.6-0.9,3.2h-9.8v-0.6c1.9-0.1,2-0.3,2-2v-7.9c0-1.8-0.2-1.9-1.7-2v-0.6h6.2
			c1.9,0,2.7,0,2.9,0c0,0.5,0.1,2,0.2,3.1l-0.6,0.1c-0.2-0.7-0.4-1.2-0.6-1.6c-0.3-0.6-0.8-0.8-1.9-0.8h-1.8c-0.6,0-0.7,0.1-0.7,0.7
			v4.4h2.2c1.4,0,1.5-0.3,1.8-1.7h0.6v4.2h-0.6c-0.3-1.4-0.4-1.7-1.8-1.7h-2.2v3.9c0,1.4,0.4,1.6,1.4,1.6h1.8c1.2,0,1.4-0.2,1.9-0.7
			c0.4-0.4,0.8-1.3,1.1-1.9L162.4,61z"/>
		<path class="st5" d="M173.9,60.8c-0.1,0.7-0.7,2.8-0.9,3.4h-9.4v-0.6c1.8-0.2,2-0.3,2-2v-7.9c0-1.7-0.2-1.8-1.8-2v-0.6h5.5v0.6
			c-1.6,0.2-1.8,0.2-1.8,2v8.1c0,1.2,0.1,1.5,1.3,1.5c0,0,1.4,0,1.5,0c1,0,1.3-0.1,1.8-0.6c0.5-0.5,0.9-1.3,1.2-2.1L173.9,60.8z"/>
		<path class="st5" d="M182,50.9c3.5,0,6.5,2.6,6.5,6.6c0,4.3-2.9,7-6.6,7c-3.9,0-6.7-2.9-6.7-6.7C175.2,54.2,177.7,50.9,182,50.9z
			 M181.6,51.7c-2.2,0-4.1,1.9-4.1,5.6c0,3.7,1.9,6.4,4.7,6.4c2.3,0,4.1-1.8,4.1-5.6C186.3,53.9,184.2,51.7,181.6,51.7z"/>
		<path class="st5" d="M197.4,54.3c-0.4-1.3-0.9-2.6-2.8-2.6c-1.5,0-2.1,1.1-2.1,2.1c0,1.3,0.9,2,2.5,2.9c2.4,1.2,3.5,2.1,3.5,4.1
			c0,2.1-1.8,3.8-4.5,3.8c-1.2,0-2.3-0.3-3.1-0.7c-0.2-0.5-0.4-2-0.6-3.1l0.6-0.2c0.4,1.3,1.3,3.1,3.4,3.1c1.4,0,2.3-1,2.3-2.3
			c0-1.5-0.8-2.1-2.5-3.1c-2.1-1.1-3.3-2.1-3.3-4c0-1.8,1.5-3.5,4.2-3.5c1.2,0,2.3,0.3,2.7,0.4c0.1,0.7,0.2,1.6,0.3,2.9L197.4,54.3z
			"/>
		<path class="st5" d="M210.6,51.2c2.8,0,4.6,0.6,5.8,1.7c1,1,1.7,2.4,1.7,4.3c0,2.3-1,4.2-2.5,5.4c-1.5,1.1-3.4,1.6-5.9,1.6h-4.8
			v-0.6c1.7-0.2,1.8-0.3,1.8-1.9v-7.9c0-1.7-0.2-1.8-1.8-2v-0.6H210.6z M208.6,61.5c0,1.5,0.6,1.9,2.1,1.9c3.4,0,5.2-2.4,5.2-5.9
			c0-2.1-0.7-3.8-2.2-4.7c-0.9-0.6-2-0.9-3.4-0.9c-0.9,0-1.3,0.1-1.5,0.3c-0.2,0.1-0.3,0.4-0.3,1.1V61.5z"/>
		<path class="st5" d="M219.9,64.2v-0.6c1.6-0.2,1.8-0.3,1.8-2v-7.9c0-1.7-0.2-1.8-1.8-2v-0.6h5.5v0.6c-1.6,0.2-1.8,0.3-1.8,2v7.9
			c0,1.7,0.2,1.8,1.8,2v0.6H219.9z"/>
		<path class="st5" d="M233.8,64.2v-0.6c1.3-0.2,1.4-0.4,1.1-1.1c-0.2-0.7-0.6-1.7-1-2.9h-4.2c-0.3,0.9-0.6,1.6-0.9,2.4
			c-0.4,1.3-0.1,1.5,1.5,1.6v0.6h-4.7v-0.6c1.3-0.2,1.6-0.3,2.3-2.1l4.1-10.5l0.7-0.1c1.3,3.4,2.6,7.2,3.9,10.6
			c0.7,1.8,0.8,1.9,2.2,2.1v0.6H233.8z M231.9,53.7c-0.6,1.7-1.3,3.4-1.9,5h3.6L231.9,53.7z"/>
		<path class="st5" d="M246.4,54.3c-0.4-1.3-0.9-2.6-2.8-2.6c-1.5,0-2.1,1.1-2.1,2.1c0,1.3,0.9,2,2.5,2.9c2.4,1.2,3.5,2.1,3.5,4.1
			c0,2.1-1.8,3.8-4.5,3.8c-1.2,0-2.3-0.3-3.1-0.7c-0.2-0.5-0.4-2-0.6-3.1l0.6-0.2c0.4,1.3,1.3,3.1,3.4,3.1c1.4,0,2.3-1,2.3-2.3
			c0-1.5-0.8-2.1-2.5-3.1c-2.1-1.1-3.3-2.1-3.3-4c0-1.8,1.5-3.5,4.2-3.5c1.2,0,2.3,0.3,2.7,0.4c0.1,0.7,0.2,1.6,0.3,2.9L246.4,54.3z
			"/>
	</g>
</g>
</svg>
