<?xml version="1.0" encoding="iso-8859-1"?>
<!-- Generator: Adobe Illustrator 19.0.0, SVG Export Plug-In . SVG Version: 6.00 Build 0)  -->
<svg version="1.1" id="Layer_1" xmlns="http://www.w3.org/2000/svg" xmlns:xlink="http://www.w3.org/1999/xlink" x="0px" y="0px"
	 viewBox="0 0 512 512" style="enable-background:new 0 0 512 512;" xml:space="preserve">
<path style="fill:#FFF3AD;" d="M511.701,243.72C505.292,108.039,393.267,0,256,0C114.616,0,0,114.616,0,256
	c0,127.776,93.616,233.677,215.998,252.882L511.701,243.72z"/>
<path style="fill:#FFE376;" d="M512,256c-0.001-4.117-0.107-8.21-0.299-12.28L409.469,141.488L65.037,357.92l150.962,150.962
	C229.033,510.928,242.391,512,256,512C397.384,512,512,397.384,512,256z"/>
<path style="fill:#C9A06C;" d="M256,89.043l-33.391,205.913h239.304C461.913,181.234,369.723,89.043,256,89.043z"/>
<path style="fill:#DBBC82;" d="M50.087,294.957H256V89.043C142.277,89.043,50.087,181.234,50.087,294.957z"/>
<path style="fill:#B78456;" d="M372.87,112.035v99.444h-33.391V94.559c-20.819-8.683-43.275-14.225-66.783-16.013v132.933H256
	l-33.391,86.261L256,384h128c49.178,0,89.043-39.866,89.043-89.043C473.043,218.116,433.112,150.605,372.87,112.035z"/>
<path style="fill:#C9A06C;" d="M239.304,211.478V78.545c-23.507,1.788-45.963,7.331-66.783,16.013v116.92H139.13v-99.444
	C78.888,150.605,38.957,218.116,38.957,294.957C38.957,344.134,78.822,384,128,384h128V211.478H239.304z"/>
<rect x="128" y="339.478" style="fill:#B78456;" width="22.261" height="22.261"/>
<rect x="361.739" y="306.087" style="fill:#A56840;" width="22.261" height="22.261"/>
<rect x="94.609" y="306.087" style="fill:#B78456;" width="22.261" height="22.261"/>
<g>
</g>
<g>
</g>
<g>
</g>
<g>
</g>
<g>
</g>
<g>
</g>
<g>
</g>
<g>
</g>
<g>
</g>
<g>
</g>
<g>
</g>
<g>
</g>
<g>
</g>
<g>
</g>
<g>
</g>
</svg>
