<?xml version="1.0" standalone="no"?>
<!DOCTYPE svg PUBLIC "-//W3C//DTD SVG 20010904//EN"
 "http://www.w3.org/TR/2001/REC-SVG-20010904/DTD/svg10.dtd">
<svg version="1.0" xmlns="http://www.w3.org/2000/svg"
 width="512.000000pt" height="512.000000pt" viewBox="0 0 512.000000 512.000000"
 preserveAspectRatio="xMidYMid meet">

<g transform="translate(0.000000,512.000000) scale(0.100000,-0.100000)"
fill="#000000" stroke="none">
<path d="M2040 4250 l0 -250 115 0 115 0 -2 248 -3 247 -112 3 -113 3 0 -251z"/>
<path d="M502 3772 c-188 -288 -324 -665 -373 -1032 -16 -122 -16 -458 0 -580
49 -369 186 -749 375 -1035 l66 -100 0 1423 c0 782 -1 1422 -2 1422 -2 0 -32
-44 -66 -98z"/>
<path d="M4548 2567 c-3 -1282 -3 -1309 -22 -1323 -15 -11 -56 -14 -168 -14
l-148 0 0 -164 c0 -123 -3 -166 -13 -175 -8 -6 -76 -12 -173 -13 l-159 -3 -3
-161 c-2 -141 -5 -163 -20 -178 -17 -15 -140 -16 -1403 -18 l-1384 -3 138 -92
c317 -214 686 -352 1077 -404 122 -16 458 -16 580 0 554 73 1056 318 1439 702
384 383 629 885 702 1439 7 52 12 183 12 290 0 208 -10 314 -50 505 -55 270
-189 595 -337 820 l-66 100 -2 -1308z"/>
<path d="M3035 3525 c-28 -27 -30 -42 -13 -80 7 -17 24 -29 49 -35 25 -7 229
-10 573 -8 509 3 535 4 555 22 31 28 28 79 -5 105 -26 21 -35 21 -581 21
l-554 0 -24 -25z"/>
<path d="M1975 3521 c-228 -65 -391 -257 -420 -495 l-7 -56 146 0 146 0 0 28
c0 43 53 144 95 181 43 38 109 70 142 71 52 0 53 2 53 151 l0 139 -47 -1 c-27
0 -75 -8 -108 -18z"/>
<path d="M3044 3282 c-15 -10 -34 -47 -34 -67 0 -9 11 -27 25 -40 l24 -25 559
0 c548 0 559 0 580 20 26 24 29 66 6 98 l-15 22 -567 0 c-312 0 -572 -4 -578
-8z"/>
<path d="M3035 3015 c-28 -27 -30 -42 -13 -80 7 -17 24 -29 49 -35 25 -7 229
-10 573 -8 509 3 535 4 555 22 31 28 28 79 -5 105 -26 21 -35 21 -581 21
l-554 0 -24 -25z"/>
<path d="M3044 2772 c-15 -10 -34 -47 -34 -67 0 -9 11 -27 25 -40 l24 -25 559
0 c548 0 559 0 580 20 26 24 29 66 6 98 l-15 22 -567 0 c-312 0 -572 -4 -578
-8z"/>
<path d="M3450 2333 c-37 -13 -40 -32 -40 -268 0 -192 3 -234 16 -253 15 -21
21 -22 185 -22 l169 0 0 78 c0 47 5 83 12 90 7 7 43 12 90 12 l78 0 -2 172 -3
172 -25 13 c-18 9 -86 13 -245 12 -121 0 -227 -3 -235 -6z"/>
</g>
</svg>
