<?xml version="1.0" encoding="iso-8859-1"?>
<!-- Generator: Adobe Illustrator 19.0.0, SVG Export Plug-In . SVG Version: 6.00 Build 0)  -->
<svg version="1.1" id="Layer_1" xmlns="http://www.w3.org/2000/svg" xmlns:xlink="http://www.w3.org/1999/xlink" x="0px" y="0px"
	 viewBox="0 0 512 512" style="enable-background:new 0 0 512 512;" xml:space="preserve">
<circle style="fill:#263A7A;" cx="256" cy="256" r="256"/>
<path style="fill:#121149;" d="M512,256L312.889,56.889L117.272,395.212l115.75,115.75c7.571,0.674,15.232,1.038,22.98,1.038
	C397.384,512,512,397.384,512,256z"/>
<path style="fill:#B5B5B5;" d="M124.84,398.222h262.32c6.11,0,11.062-4.953,11.062-11.062V153.285
	c0-6.11-4.953-11.062-11.062-11.062H124.84c-6.11,0-11.062,4.953-11.062,11.062V387.16
	C113.778,393.269,118.731,398.222,124.84,398.222z"/>
<path style="fill:#919191;" d="M387.16,142.222H255.426v256H387.16c6.11,0,11.062-4.953,11.062-11.062V153.285
	C398.222,147.175,393.269,142.222,387.16,142.222z"/>
<rect x="138.774" y="161.185" style="fill:#FFFFFF;" width="234.451" height="75.852"/>
<rect x="255.431" y="161.185" style="fill:#D8D8D8;" width="117.794" height="75.852"/>
<g>
	<rect x="138.774" y="256" style="fill:#444444;" width="56.889" height="28.444"/>
	<rect x="138.774" y="298.667" style="fill:#444444;" width="56.889" height="28.444"/>
	<rect x="138.774" y="341.333" style="fill:#444444;" width="56.889" height="28.444"/>
	<rect x="208.593" y="256" style="fill:#444444;" width="56.889" height="28.444"/>
	<rect x="208.593" y="298.667" style="fill:#444444;" width="56.889" height="28.444"/>
	<rect x="208.593" y="341.333" style="fill:#444444;" width="56.889" height="28.444"/>
	<rect x="279.273" y="256" style="fill:#444444;" width="56.889" height="28.444"/>
</g>
<rect x="344.781" y="256" style="fill:#E03A00;" width="28.444" height="113.778"/>
<g>
	<rect x="279.273" y="298.667" style="fill:#444444;" width="56.889" height="28.444"/>
	<rect x="279.273" y="341.333" style="fill:#444444;" width="56.889" height="28.444"/>
</g>
<rect x="199.111" y="56.889" style="fill:#FFFFFF;" width="113.778" height="85.333"/>
<rect x="255.431" y="56.889" style="fill:#D8D8D8;" width="57.458" height="85.333"/>
<g>
	<rect x="213.333" y="112.054" style="fill:#121149;" width="71.111" height="3.448"/>
	<rect x="213.333" y="83.609" style="fill:#121149;" width="71.111" height="3.448"/>
	<rect x="213.333" y="126.707" style="fill:#121149;" width="85.333" height="3.448"/>
	<rect x="213.333" y="97.401" style="fill:#121149;" width="85.333" height="3.448"/>
</g>
<g>
	<path style="fill:#606060;" d="M346.791,226.694H334.15c-5.782,0-10.487-4.705-10.487-10.488v-34.188
		c0-5.782,4.705-10.488,10.487-10.488h12.641c5.782,0,10.488,4.705,10.488,10.488v34.188
		C357.279,221.989,352.575,226.694,346.791,226.694z M334.15,176.7c-2.931,0-5.315,2.386-5.315,5.317v34.188
		c0,2.931,2.384,5.317,5.315,5.317h12.641c2.931,0,5.316-2.386,5.316-5.317v-34.188c0-2.931-2.386-5.317-5.316-5.317H334.15z"/>
	<path style="fill:#606060;" d="M304.987,226.694h-12.641c-5.782,0-10.487-4.705-10.487-10.488v-34.188
		c0-5.782,4.705-10.488,10.487-10.488h12.641c5.782,0,10.488,4.705,10.488,10.488v34.188
		C315.475,221.989,310.77,226.694,304.987,226.694z M292.345,176.7c-2.931,0-5.315,2.386-5.315,5.317v34.188
		c0,2.931,2.384,5.317,5.315,5.317h12.641c2.931,0,5.317-2.386,5.317-5.317v-34.188c0-2.931-2.386-5.317-5.317-5.317H292.345z"/>
	<path style="fill:#606060;" d="M262.32,226.694h-12.641c-5.782,0-10.487-4.705-10.487-10.488v-34.188
		c0-5.782,4.705-10.488,10.487-10.488h12.641c5.782,0,10.488,4.705,10.488,10.488v34.188
		C272.808,221.989,268.104,226.694,262.32,226.694z M249.678,176.7c-2.931,0-5.315,2.386-5.315,5.317v34.188
		c0,2.931,2.384,5.317,5.315,5.317h12.641c2.931,0,5.317-2.386,5.317-5.317v-34.188c0-2.931-2.386-5.317-5.317-5.317H249.678z"/>
</g>
<g>
</g>
<g>
</g>
<g>
</g>
<g>
</g>
<g>
</g>
<g>
</g>
<g>
</g>
<g>
</g>
<g>
</g>
<g>
</g>
<g>
</g>
<g>
</g>
<g>
</g>
<g>
</g>
<g>
</g>
</svg>
