<?xml version="1.0" encoding="iso-8859-1"?>
<!-- Generator: Adobe Illustrator 19.0.0, SVG Export Plug-In . SVG Version: 6.00 Build 0)  -->
<svg version="1.1" id="Layer_1" xmlns="http://www.w3.org/2000/svg" xmlns:xlink="http://www.w3.org/1999/xlink" x="0px" y="0px"
	 viewBox="0 0 473.935 473.935" style="enable-background:new 0 0 473.935 473.935;" xml:space="preserve">
<circle style="fill:#F47C2C;" cx="236.967" cy="236.967" r="236.967"/>
<g>
	<path style="fill:#F98646;" d="M78.211,412.888c-1.096-34.859-2.178-73.141-3.233-74.604c6.208-8.441,25.605-28.157,79.636-46.518
		c-9.224-3.188-19.869-6.327-32.172-9.287c0-14.668-1.463-23.461-1.463-23.461s19.068-26.402,20.527-63.075
		c0-5.833,2.866-47.188-46.93-49.059c0,0,0-0.045,0-0.06c-0.123,0-0.236,0.022-0.37,0.022c-0.127,0-0.236-0.022-0.363-0.022
		c0,0.015,0,0.045,0,0.045c-49.788,1.886-46.933,43.244-46.933,49.074c1.463,36.673,20.531,63.075,20.531,63.075
		s-1.474,8.793-1.474,23.461c-25.328,6.103-43.667,12.943-56.909,19.431C21.392,345.236,45.68,383.515,78.211,412.888z"/>
	<path style="fill:#F98646;" d="M410.968,259.022c0,0,19.068-26.402,20.527-63.075c0-5.833,2.866-47.188-46.93-49.059
		c0,0,0-0.045,0-0.06c-0.123,0-0.236,0.022-0.37,0.022c-0.127,0-0.236-0.022-0.363-0.022c0,0.015,0,0.045,0,0.045
		c-49.788,1.886-46.933,43.244-46.933,49.074c1.463,36.673,20.531,63.075,20.531,63.075s-1.474,8.793-1.474,23.461
		c-13.594,3.274-25.175,6.761-35.034,10.297c53.567,18.679,71.88,38.529,77.32,46.32c-0.546,0.752-2.122,39.551-2.687,73.792
		c32.557-29.687,57.766-69.148,69.811-112.852c-12.876-5.919-30.047-12.045-52.943-17.553
		C412.431,267.815,410.968,259.022,410.968,259.022z"/>
</g>
<path style="fill:#509BA3;" d="M78.211,412.888c0,0.101,0.007,0.213,0.007,0.314c0.165,0.037,0.326,0.075,0.486,0.109
	C78.544,413.164,78.372,413.034,78.211,412.888z"/>
<path style="fill:#F69656;" d="M398.796,338.288c-5.044-24.651-25.605-28.157-79.636-46.518
	c-12.318-4.187-26.428-8.303-42.604-12.191c0-20.318-2.043-32.494-2.043-32.494s26.406-36.561,28.426-87.337
	c0-8.067-2.312-67.951-66.391-67.951s-65.717,59.884-65.717,67.951c2.021,50.776,28.426,87.337,28.426,87.337
	s-2.043,12.176-2.043,32.494c-16.172,3.888-30.286,8.004-42.604,12.191c-54.031,18.357-74.596,21.867-79.636,46.518
	c-1.321,6.455,2.137,39.742,3.233,74.604c0.161,0.146,0.333,0.277,0.494,0.423c41.93,37.654,97.343,60.591,158.12,60.621l0,0
	c0.022,0,0.041,0,0.064,0c0.022,0,0.045,0,0.067,0l0,0c60.778-0.03,116.19-22.971,158.12-60.621
	c0.161-0.146,0.333-0.277,0.494-0.423C396.659,378.029,400.117,344.738,398.796,338.288z"/>
<g>
</g>
<g>
</g>
<g>
</g>
<g>
</g>
<g>
</g>
<g>
</g>
<g>
</g>
<g>
</g>
<g>
</g>
<g>
</g>
<g>
</g>
<g>
</g>
<g>
</g>
<g>
</g>
<g>
</g>
</svg>
