<?xml version="1.0" standalone="no"?>
<!DOCTYPE svg PUBLIC "-//W3C//DTD SVG 20010904//EN"
 "http://www.w3.org/TR/2001/REC-SVG-20010904/DTD/svg10.dtd">
<svg version="1.0" xmlns="http://www.w3.org/2000/svg"
 width="512.000000pt" height="512.000000pt" viewBox="0 0 512.000000 512.000000"
 preserveAspectRatio="xMidYMid meet">

<g transform="translate(0.000000,512.000000) scale(0.100000,-0.100000)"
fill="#000000" stroke="none">
<path d="M197 5103 c-62 -21 -131 -82 -165 -147 l-27 -51 0 -800 0 -800 27
-50 c31 -60 77 -104 138 -136 l45 -24 484 -3 484 -3 205 -159 c205 -161 228
-173 272 -150 29 16 40 66 40 191 l0 119 188 0 c103 0 205 5 227 10 33 8 48 5
85 -13 36 -17 67 -22 157 -25 l113 -4 11 -42 c19 -71 87 -205 140 -277 59 -80
143 -159 223 -209 l55 -35 1 -162 c0 -90 -3 -163 -6 -163 -3 0 -126 -32 -272
-71 l-265 -71 -64 21 c-63 21 -76 21 -1056 21 -1137 0 -1063 5 -1153 -84 -83
-84 -84 -89 -84 -557 0 -219 3 -405 6 -414 7 -18 55 -45 79 -45 9 0 27 11 40
25 l25 24 0 397 c0 433 1 442 58 481 26 17 81 18 1008 21 772 2 989 0 1020
-10 24 -8 47 -26 61 -47 l23 -34 0 -633 0 -634 -1085 0 -1085 0 0 85 c0 72 -3
88 -20 105 -30 30 -83 27 -109 -6 -20 -25 -21 -39 -21 -264 0 -289 6 -317 84
-396 93 -92 -162 -84 2573 -84 l2414 0 24 25 25 24 0 338 c-1 361 -1 362 -51
382 -30 11 -83 -8 -93 -34 -3 -9 -6 -145 -6 -301 l0 -284 -637 2 -638 3 -59
425 -59 425 71 165 c82 191 341 773 347 779 3 2 127 -29 277 -69 319 -84 391
-115 490 -208 86 -82 134 -155 172 -262 26 -76 30 -101 34 -237 4 -132 7 -154
24 -172 27 -30 78 -28 108 4 22 24 23 27 17 182 -3 101 -11 180 -22 218 -43
153 -142 309 -258 405 -118 97 -200 129 -654 250 -226 60 -414 110 -417 110
-3 0 -6 73 -6 163 l1 162 60 40 c34 22 100 81 147 131 58 60 99 95 123 103 41
13 93 63 108 104 6 16 11 63 11 106 l0 79 98 4 c112 5 168 25 224 80 69 70 73
87 76 345 3 220 2 235 -19 283 -13 31 -41 68 -70 94 l-49 44 0 255 c0 222 -2
263 -19 316 -52 169 -207 303 -381 330 -36 6 -82 11 -102 11 -35 0 -37 2 -52
48 -35 104 -133 198 -242 232 -64 19 -91 20 -749 20 -643 0 -684 -1 -705 -18
-22 -17 -24 -17 -74 0 -39 13 -84 17 -194 18 -139 0 -144 -1 -167 -25 -14 -13
-25 -36 -25 -50 0 -14 11 -37 25 -50 23 -24 29 -25 157 -25 151 0 186 -11 225
-69 l23 -34 0 -483 c0 -315 -3 -484 -10 -484 -20 0 -86 -70 -110 -117 -24 -46
-25 -58 -28 -260 -2 -120 1 -227 6 -247 l10 -36 -232 0 c-184 0 -236 -3 -252
-14 -16 -12 -20 -30 -24 -121 l-5 -107 -155 120 -155 121 -495 3 -495 3 -34
24 c-63 45 -61 16 -61 838 0 692 1 751 18 782 9 19 30 44 45 55 28 21 41 21
669 26 l640 5 19 24 c26 32 24 67 -6 96 l-24 25 -633 -1 c-552 0 -639 -2 -681
-16z m3758 -1420 l107 -208 -5 -170 c-5 -178 -14 -223 -64 -337 l-26 -58 -256
0 c-244 0 -257 1 -268 20 -35 56 -158 67 -209 19 -83 -78 -69 -197 29 -247 60
-32 114 -24 167 24 l37 34 193 0 193 0 -19 -21 c-27 -31 -130 -102 -189 -132
-320 -160 -734 -44 -929 262 -104 162 -116 223 -116 585 0 270 1 288 18 281 9
-3 50 -15 89 -26 68 -19 99 -20 460 -17 l388 3 76 36 c49 24 99 58 140 97 35
34 67 61 71 62 3 0 54 -93 113 -207z m-1515 -183 l0 -290 -72 0 c-89 0 -136
20 -160 70 -25 49 -26 384 -2 435 27 57 60 72 167 74 l67 1 0 -290z m1944 276
c18 -7 42 -26 54 -41 21 -26 22 -37 22 -235 0 -195 -1 -209 -21 -234 -33 -42
-70 -56 -154 -56 l-75 0 0 290 0 290 70 0 c39 0 85 -6 104 -14z m-1189 -1382
c101 -18 226 -14 334 11 35 9 65 14 67 13 1 -2 6 -62 10 -134 l7 -131 -137
-149 c-75 -82 -141 -150 -145 -152 -5 -2 -70 64 -145 145 l-136 148 0 139 0
138 28 -6 c15 -3 68 -13 117 -22z m-111 -508 c71 -78 131 -146 133 -152 3 -10
-186 -228 -192 -222 -8 7 -205 452 -207 467 -2 11 14 20 57 32 33 10 65 17 70
17 6 0 68 -64 139 -142z m692 127 c35 -9 64 -22 64 -28 0 -13 -198 -456 -208
-467 -4 -4 -51 42 -105 103 l-98 109 138 150 c76 83 139 150 141 150 2 0 33
-8 68 -17z m-989 -343 c68 -151 161 -363 208 -470 l84 -195 -60 -425 c-32
-233 -59 -426 -59 -427 0 -2 -70 -3 -156 -3 -145 0 -156 1 -149 18 16 41 27
153 23 243 -5 129 -12 137 -122 141 l-81 3 -5 660 c-3 363 -8 665 -12 671 -5
8 19 19 75 34 45 11 87 23 92 25 30 11 46 -17 162 -275z m581 -102 c22 -24 73
-82 115 -129 l76 -86 -56 -132 -57 -132 -119 3 -120 3 -54 125 c-45 105 -52
128 -42 144 11 19 211 246 216 246 1 0 20 -19 41 -42z m67 -660 c5 -30 105
-747 105 -755 0 -1 -94 -3 -210 -3 -193 0 -210 1 -210 18 0 9 23 187 52 395
l53 377 102 0 102 0 6 -32z m-1037 -597 c-4 -63 -11 -99 -25 -123 l-19 -33
-1055 0 c-991 0 -1057 1 -1082 18 -46 30 -60 62 -65 148 l-5 79 1128 0 1128 0
-5 -89z"/>
<path d="M1070 4779 c-248 -36 -466 -223 -546 -465 -26 -79 -29 -102 -29 -214
1 -113 4 -133 31 -211 77 -217 261 -388 479 -445 79 -20 251 -20 330 1 224 58
412 234 485 455 30 90 37 250 16 349 -24 116 -83 226 -170 317 -160 171 -372
246 -596 213z m260 -169 c168 -50 313 -205 355 -381 65 -278 -95 -550 -374
-633 -78 -23 -213 -21 -292 4 -167 52 -286 165 -348 330 -34 92 -36 246 -3
341 96 279 376 422 662 339z"/>
<path d="M895 4349 c-92 -53 -61 -189 44 -189 54 0 90 32 98 86 4 35 1 46 -23
73 -32 35 -86 49 -119 30z"/>
<path d="M1370 4353 c-56 -20 -83 -89 -56 -141 20 -39 44 -52 93 -52 72 0 118
84 83 151 -19 35 -80 57 -120 42z"/>
<path d="M894 3968 c-22 -10 -44 -47 -44 -73 0 -29 64 -86 137 -122 63 -31 87
-37 157 -41 98 -5 176 14 248 60 95 60 120 117 73 163 -33 34 -64 31 -116 -10
-55 -42 -117 -65 -179 -65 -62 0 -103 15 -170 62 -59 40 -72 43 -106 26z"/>
<path d="M1168 1506 c-255 -70 -283 -411 -43 -522 178 -83 389 53 389 250 -1
181 -176 319 -346 272z m132 -161 c37 -19 60 -63 60 -115 0 -32 -7 -48 -33
-76 -82 -90 -226 -26 -214 96 10 88 105 137 187 95z"/>
</g>
</svg>
